<?xml version="1.0" encoding="UTF-8" standalone="no"?>
<svg
   xmlns:dc="http://purl.org/dc/elements/1.1/"
   xmlns:cc="http://creativecommons.org/ns#"
   xmlns:rdf="http://www.w3.org/1999/02/22-rdf-syntax-ns#"
   xmlns:svg="http://www.w3.org/2000/svg"
   xmlns="http://www.w3.org/2000/svg"
   xmlns:sodipodi="http://sodipodi.sourceforge.net/DTD/sodipodi-0.dtd"
   xmlns:inkscape="http://www.inkscape.org/namespaces/inkscape"
   version="1.1"
   x="0px"
   y="0px"
   width="64px"
   height="64px"
   viewBox="0 0 64 64"
   style="enable-background:new 0 0 64 64;"
   xml:space="preserve"
   id="svg30"
   sodipodi:docname="33.svg"
   inkscape:version="0.92.4 (5da689c313, 2019-01-14)"><metadata
   id="metadata36"><rdf:RDF><cc:Work
       rdf:about=""><dc:format>image/svg+xml</dc:format><dc:type
         rdf:resource="http://purl.org/dc/dcmitype/StillImage" /></cc:Work></rdf:RDF></metadata><defs
   id="defs34" /><sodipodi:namedview
   pagecolor="#ffffff"
   bordercolor="#666666"
   borderopacity="1"
   objecttolerance="10"
   gridtolerance="10"
   guidetolerance="10"
   inkscape:pageopacity="0"
   inkscape:pageshadow="2"
   inkscape:window-width="732"
   inkscape:window-height="480"
   id="namedview32"
   showgrid="false"
   inkscape:zoom="3.6875"
   inkscape:cx="32"
   inkscape:cy="32"
   inkscape:window-x="0"
   inkscape:window-y="0"
   inkscape:window-maximized="0"
   inkscape:current-layer="g9" />
<style
   type="text/css"
   id="style2">
	.fandom_twee{fill:#BE5652;}
	.fandom_drie{fill:#BE9148;}
	.fandom_vier{fill:#FFC865;}
	.fandom_vijf{fill:#018273;}
	.fandom_zeven{fill:#508D9B;}
	.fandom_negen{fill:#685683;}
	.fandom_vijftien{fill:#3A3A3A;}
	.fandom_zestien{fill:#4D4D4D;}
	.fandom_zeventien{fill:#666666;}
	.st0{fill:#231F20;}
	.st1{fill:#FF786E;}
	.st2{fill:#644638;}
	.st3{fill:#4B322A;}
	.st4{fill:#EFEAE0;}
	.st5{fill:#AA9991;}
	.st6{fill:#808080;}
	.st7{fill:#CCCCCC;}
	.st8{fill:#6BC4D2;}
	.st9{fill:#FFFAFA;}
	.st10{fill:#8579A3;}
	.st11{fill:#00B3AA;}
</style>
<g
   id="LABELS">
</g>
<g
   id="Uploaded to svgrepo.com">
	<g
   id="g27">
		<g
   id="g9">
			
			
		</g>
		<g
   id="g25">
			<path
   class="fandom_vijftien"
   d="M58.818,41.969l-2.329-8.863C56.846,32.136,57,31.093,57,30c0-2.75-1.186-5.208-3.13-6.859     l-1.504-5.534C52.179,16.673,51.359,16,50.405,16h-5.721c-0.953,0-1.774,0.673-1.961,1.608l-0.518,1.588     C42.112,19.664,41.702,20,41.225,20H22.826c-0.477,0-0.887-0.336-0.98-0.804l-0.518-1.588C21.141,16.673,20.32,16,19.366,16     h-5.721c-0.953,0-1.774,0.673-1.961,1.608l-1.504,5.534C8.237,24.792,7,27.25,7,30c0,1.093,0.205,2.136,0.562,3.106l-2.329,8.863     c-0.577,2.063,0.218,4.98,2.346,6.265c2.202,1.329,5.742,0.887,7.42-1.51l3.602-5.146c0.967,2.02,3.025,3.423,5.41,3.423     c2.606,0,4.824-1.673,5.65-4h4.727c0.826,2.327,3.044,4,5.65,4c2.385,0,4.443-1.402,5.41-3.423l3.602,5.146     c1.678,2.397,5.218,2.839,7.42,1.51C58.6,46.949,59.281,43.875,58.818,41.969z"
   id="path11" />
			<circle
   class="fandom_twee"
   cx="52.012"
   cy="30"
   r="1.5"
   id="circle13" />
			<circle
   class="fandom_vijf"
   cx="48.012"
   cy="26"
   r="1.5"
   id="circle15" />
			<circle
   class="fandom_zeven"
   cx="48.012"
   cy="34"
   r="1.5"
   id="circle17" />
			<circle
   class="fandom_negen"
   cx="44.012"
   cy="30"
   r="1.5"
   id="circle19" />
			<path
   class="fandom_zeventien"
   d="M21.5,29.5v1c0,0.552-0.448,1-1,1h-3v3c0,0.552-0.448,1-1,1h-1c-0.552,0-1-0.448-1-1v-3h-3     c-0.552,0-1-0.448-1-1v-1c0-0.552,0.448-1,1-1h3v-3c0-0.552,0.448-1,1-1h1c0.552,0,1,0.448,1,1v3h3     C21.052,28.5,21.5,28.948,21.5,29.5z M38,26c0-0.553-0.448-1-1-1H27c-0.552,0-1,0.447-1,1s0.448,1,1,1h10     C37.552,27,38,26.553,38,26z"
   id="path21" />
			<path
   class="fandom_zestien"
   d="M24.012,35c-2.209,0-4,1.791-4,4c0,2.209,1.791,4,4,4s4-1.791,4-4     C28.012,36.791,26.221,35,24.012,35z M58.818,41.969l-2.329-8.863C56.846,32.136,57,31.093,57,30c0-2.75-1.186-5.208-3.13-6.859     l-1.504-5.534C52.179,16.673,51.359,16,50.405,16h-5.721c-0.953,0-1.774,0.673-1.961,1.608l-0.518,1.588     C42.112,19.664,41.702,20,41.225,20H32v5h5c0.552,0,1,0.447,1,1s-0.448,1-1,1h-5v14h2.389c0.826,2.327,3.044,4,5.65,4     c2.385,0,4.443-1.402,5.41-3.423l3.602,5.146c1.678,2.397,5.218,2.839,7.42,1.51C58.6,46.949,59.281,43.75,58.818,41.969z      M48.012,23.5c1.379,0,2.5,1.122,2.5,2.5s-1.121,2.5-2.5,2.5c-1.378,0-2.5-1.122-2.5-2.5S46.633,23.5,48.012,23.5z M40,43     c-2.209,0-4-1.791-4-4s1.816-4,4-4s4,1.791,4,4S42.209,43,40,43z M44.012,32.5c-1.379,0-2.5-1.122-2.5-2.5s1.121-2.5,2.5-2.5     s2.5,1.122,2.5,2.5S45.39,32.5,44.012,32.5z M48.012,36.5c-1.378,0-2.5-1.122-2.5-2.5s1.121-2.5,2.5-2.5     c1.379,0,2.5,1.122,2.5,2.5S49.39,36.5,48.012,36.5z M52.012,32.5c-1.378,0-2.5-1.122-2.5-2.5s1.122-2.5,2.5-2.5     c1.379,0,2.5,1.122,2.5,2.5S53.39,32.5,52.012,32.5z"
   id="path23" />
		</g>
	</g>
</g>
</svg>